<?xml version="1.0" standalone="no"?>
<!DOCTYPE svg PUBLIC "-//W3C//DTD SVG 20010904//EN"
 "http://www.w3.org/TR/2001/REC-SVG-20010904/DTD/svg10.dtd">
<svg version="1.0" xmlns="http://www.w3.org/2000/svg"
 width="400.000000pt" height="400.000000pt" viewBox="0 0 400.000000 400.000000"
 preserveAspectRatio="xMidYMid meet">
<metadata>
Created by potrace 1.14, written by Peter Selinger 2001-2017
</metadata>
<g transform="translate(0.000000,400.000000) scale(0.100000,-0.100000)"
fill="#000000" stroke="none">
<path d="M1755 3987 c-11 -7 -22 -15 -25 -18 -3 -3 -15 -5 -27 -4 -12 1 -20
-2 -17 -7 3 -4 0 -8 -6 -8 -15 0 -104 -43 -108 -52 -2 -4 -10 -8 -18 -8 -8 0
-14 -4 -14 -10 0 -5 -5 -10 -10 -10 -6 0 -20 -9 -32 -20 -12 -10 -25 -17 -30
-14 -4 3 -8 -2 -8 -10 0 -9 -4 -16 -8 -16 -12 0 -81 -68 -75 -73 2 -3 -5 -8
-16 -12 -12 -3 -19 -10 -16 -15 3 -5 -4 -15 -15 -23 -11 -7 -17 -17 -13 -20 3
-4 1 -7 -6 -7 -7 0 -9 -4 -6 -10 3 -5 2 -10 -2 -10 -5 0 -17 -16 -27 -35 -10
-19 -23 -32 -27 -29 -5 3 -6 -1 -3 -9 3 -8 -2 -22 -11 -31 -9 -9 -15 -23 -12
-30 3 -8 -1 -17 -9 -20 -9 -3 -12 -10 -9 -16 3 -5 0 -10 -7 -10 -9 0 -9 -3 2
-10 10 -6 11 -10 3 -10 -7 0 -12 -3 -12 -7 1 -5 0 -11 -1 -15 -1 -5 -4 -12 -5
-18 -1 -5 -3 -11 -5 -12 -1 -2 -4 -16 -6 -33 -3 -16 -11 -33 -17 -37 -9 -6 -8
-8 2 -8 11 0 11 -3 0 -17 -12 -15 -12 -16 1 -8 13 8 13 7 0 -10 -8 -10 -14
-20 -12 -22 1 -1 2 -9 2 -16 0 -16 -71 -10 -82 7 -5 8 -8 7 -8 -2 0 -9 -5 -10
-17 -4 -9 6 -29 6 -45 2 -19 -6 -28 -5 -28 3 0 7 -4 6 -10 -3 -9 -13 -10 -13
-10 0 0 10 -3 11 -8 4 -4 -6 -15 -10 -24 -8 -10 1 -18 -1 -18 -6 0 -4 -15 -6
-32 -5 -18 2 -37 0 -43 -3 -11 -7 -33 -13 -55 -14 -8 -1 -17 -5 -20 -9 -5 -8
-38 -17 -68 -18 -7 -1 -10 -5 -7 -11 3 -5 3 -10 -2 -11 -30 -3 -49 -10 -58
-21 -5 -7 -17 -14 -25 -16 -8 -2 -16 -8 -18 -13 -2 -5 -8 -9 -13 -9 -10 0 -17
-5 -63 -45 -16 -14 -34 -25 -39 -25 -6 0 -8 -2 -5 -5 2 -3 -22 -32 -54 -66
-32 -34 -56 -64 -54 -67 3 -2 -4 -13 -15 -25 -10 -11 -19 -27 -19 -34 0 -7 -4
-13 -10 -13 -5 0 -10 -9 -10 -19 0 -11 -5 -21 -11 -23 -5 -2 -11 -10 -12 -18
-2 -8 -10 -30 -19 -48 -10 -19 -12 -29 -5 -25 9 5 9 3 0 -8 -13 -17 -25 -68
-27 -116 -1 -17 -4 -29 -8 -27 -3 2 -7 -41 -7 -97 -1 -65 2 -98 9 -94 5 3 10
1 10 -4 0 -6 -4 -11 -10 -11 -5 0 -10 -5 -10 -11 0 -5 4 -8 8 -5 4 2 7 -7 7
-22 -1 -15 1 -31 4 -37 6 -11 10 -29 13 -57 1 -10 6 -18 11 -18 5 0 7 -7 3
-15 -3 -8 -1 -15 4 -15 6 0 9 -3 9 -7 -3 -20 2 -34 11 -28 5 3 7 0 4 -8 -3 -8
-1 -18 5 -22 6 -3 11 -15 11 -26 0 -11 4 -18 9 -15 5 4 8 -1 7 -10 -2 -10 11
-30 27 -46 17 -15 28 -31 25 -33 -8 -8 67 -85 83 -85 7 0 9 -3 6 -7 -7 -7 62
-73 76 -73 5 0 5 -4 2 -10 -3 -5 0 -8 7 -5 7 3 25 -6 40 -20 15 -14 34 -25 43
-25 8 0 15 -5 15 -12 0 -6 3 -9 6 -5 4 3 13 -1 21 -9 9 -8 22 -13 29 -10 8 3
14 1 14 -4 0 -8 27 -20 56 -24 7 -1 16 -5 20 -8 3 -4 12 -4 20 -1 8 3 14 1 14
-5 0 -6 9 -8 20 -5 12 3 20 0 20 -6 0 -7 3 -10 8 -8 4 3 7 -185 7 -416 l0
-422 56 -1 c31 -1 62 -5 69 -9 8 -5 11 -4 6 3 -3 6 -2 13 4 17 5 3 10 11 10
16 0 6 -5 7 -11 3 -8 -5 -8 -1 0 14 13 25 14 35 3 28 -11 -6 -9 25 2 42 4 7 3
19 -4 26 -8 11 -8 15 2 18 9 3 10 9 3 19 -9 12 -11 33 -5 49 9 24 8 50 -1 44
-8 -5 -8 -1 0 14 14 26 14 35 0 26 -8 -5 -8 -1 0 14 14 26 14 35 0 26 -8 -5
-8 -1 0 14 13 25 14 35 3 28 -11 -6 -9 25 2 42 4 7 3 19 -4 26 -8 11 -8 15 2
18 9 3 10 9 3 19 -9 12 -11 33 -5 49 9 24 8 50 -1 44 -8 -5 -8 -1 0 14 13 25
14 35 3 28 -11 -6 -9 25 2 42 4 7 3 19 -4 26 -8 11 -8 15 2 18 9 3 10 9 3 19
-9 12 -11 33 -5 49 9 24 8 50 -1 44 -8 -5 -8 -1 0 14 14 26 14 35 0 26 -8 -4
-8 0 0 15 9 16 9 21 0 21 -8 0 -7 5 2 17 10 11 10 14 2 9 -8 -4 -13 -1 -13 8
0 9 -9 16 -20 16 -11 0 -20 5 -20 11 0 6 -9 9 -20 6 -11 -3 -22 -1 -25 4 -3 4
-12 6 -20 2 -8 -3 -15 0 -15 5 0 6 -8 9 -18 7 -10 -1 -34 5 -55 15 -20 10 -34
13 -30 7 3 -7 -3 -4 -15 7 -12 10 -28 16 -37 12 -9 -3 -14 -2 -11 3 3 4 -12
16 -34 26 -22 10 -40 23 -40 28 0 6 -3 8 -6 4 -4 -3 -12 -1 -20 6 -7 7 -29 25
-48 41 -20 16 -33 33 -29 40 3 6 3 8 -1 4 -10 -8 -47 23 -40 34 3 4 0 8 -5 8
-6 0 -11 7 -11 15 0 8 -5 15 -11 15 -5 0 -7 5 -3 12 5 7 3 8 -5 4 -8 -5 -14 0
-18 13 -3 12 -10 21 -15 21 -5 0 -6 5 -3 11 4 5 0 18 -8 27 -9 9 -19 29 -22
45 -4 15 -12 27 -19 27 -6 0 -4 5 4 10 11 7 11 10 2 10 -7 0 -11 4 -7 9 3 5 1
12 -5 16 -6 4 -8 11 -5 16 4 5 2 9 -2 9 -5 0 -9 20 -8 45 0 25 -4 45 -10 45
-5 0 -3 5 5 10 11 7 11 10 2 10 -10 0 -10 5 -1 21 8 15 8 19 0 15 -7 -5 -10 1
-7 16 3 13 5 23 6 23 1 0 3 23 6 50 5 63 8 77 17 93 5 6 5 17 2 22 -3 6 -1 10
4 10 6 0 11 5 11 11 0 5 -6 7 -12 3 -7 -4 -5 2 5 13 9 11 14 23 10 26 -3 4 -1
7 5 7 7 0 11 3 11 8 -4 21 2 32 13 26 8 -5 9 -2 5 9 -3 10 -2 17 3 17 6 0 10
7 10 15 0 8 5 15 10 15 6 0 10 7 10 15 0 7 6 18 13 22 8 4 17 16 20 26 4 11
12 15 18 11 7 -4 9 -3 6 3 -4 6 7 22 23 37 17 14 30 31 30 36 0 6 3 9 8 8 4
-2 18 5 32 15 13 9 20 17 15 17 -5 0 22 16 61 35 38 19 75 33 81 30 7 -2 12 1
10 7 -1 6 9 12 21 13 13 1 27 6 30 11 7 9 34 13 119 17 24 1 43 4 43 8 0 3 19
4 43 2 23 -1 59 -3 79 -4 21 -1 36 -5 33 -9 -2 -4 6 -6 18 -5 12 0 30 -3 41
-8 13 -7 16 -6 11 3 -6 9 -3 9 11 2 24 -13 62 15 66 49 2 13 7 29 11 36 4 6 3
14 -3 18 -6 4 -7 13 -1 23 4 9 7 25 5 36 -1 10 1 29 6 42 7 17 6 24 -3 24 -8
0 -9 3 -1 8 14 9 34 68 27 76 -4 3 -1 6 5 6 6 0 9 9 7 21 -3 15 0 19 11 15 9
-3 12 -2 9 4 -10 16 5 51 18 44 7 -4 9 -4 5 1 -9 9 16 58 53 106 16 20 29 42
29 49 0 6 5 8 10 5 6 -3 10 1 10 9 0 8 5 18 12 22 7 5 8 2 3 -7 -4 -8 6 1 24
20 17 19 31 30 31 25 1 -5 7 2 15 16 8 14 14 21 15 17 0 -5 7 -2 15 5 33 30
45 38 56 38 6 0 23 9 39 20 15 11 30 17 34 13 3 -3 6 -1 6 6 0 6 6 11 13 10 6
-1 19 1 27 4 8 4 24 8 35 10 11 2 28 7 37 11 9 4 22 5 28 1 5 -3 10 -2 10 3 0
5 18 8 40 7 23 -1 40 3 40 9 0 7 3 8 8 1 9 -13 42 -16 42 -3 0 5 6 6 12 1 7
-4 35 -8 63 -8 27 -1 60 -7 71 -13 12 -6 24 -9 27 -6 3 3 12 2 19 -2 14 -9 24
-12 70 -21 15 -3 26 -9 23 -13 -3 -5 11 -14 32 -21 38 -12 48 -19 89 -56 13
-12 24 -19 24 -16 0 3 8 -4 19 -15 10 -12 23 -22 28 -22 6 0 17 -8 24 -17 12
-15 12 -16 -1 -8 -8 4 -4 -3 10 -17 46 -46 80 -90 75 -98 -3 -4 2 -11 11 -14
8 -3 12 -10 9 -16 -3 -5 -2 -10 3 -10 4 0 14 -16 22 -35 7 -19 17 -32 20 -30
4 3 6 -9 5 -25 -1 -17 1 -30 5 -30 7 0 17 -32 27 -85 2 -11 5 -41 6 -67 1 -27
5 -48 8 -48 3 0 5 -12 4 -27 -5 -72 44 -99 134 -76 30 8 65 13 78 10 13 -2 23
-1 23 2 0 3 14 6 30 7 17 1 30 -2 30 -5 0 -3 29 -7 64 -8 35 -1 75 -7 88 -14
12 -7 28 -13 33 -14 29 -2 75 -18 75 -26 0 -5 9 -9 20 -9 11 0 20 -5 20 -11 0
-5 5 -7 10 -4 6 3 10 1 10 -4 0 -6 3 -11 8 -10 18 3 52 -15 52 -27 0 -8 4 -14
9 -14 5 0 16 -6 23 -13 7 -7 26 -22 42 -35 16 -12 25 -22 21 -22 -4 0 -2 -7 5
-15 7 -8 17 -12 23 -8 5 3 7 2 4 -4 -4 -5 3 -19 13 -31 11 -12 20 -26 20 -32
0 -5 5 -10 10 -10 6 0 10 -5 10 -10 0 -6 11 -28 25 -51 14 -22 23 -44 20 -49
-4 -6 -1 -10 6 -10 7 0 10 -3 6 -6 -3 -3 1 -25 9 -47 8 -23 17 -66 19 -95 2
-30 6 -56 9 -59 3 -3 1 -15 -5 -26 -8 -14 -8 -18 0 -13 13 9 14 4 2 -28 -7
-17 -7 -26 2 -30 7 -2 7 -5 2 -5 -6 -1 -10 -17 -9 -36 1 -19 -1 -35 -5 -35 -4
0 -8 -12 -9 -27 -1 -16 -7 -29 -12 -31 -6 -2 -10 -8 -10 -13 0 -6 5 -7 11 -3
6 3 -1 -12 -16 -35 -14 -23 -23 -46 -20 -51 4 -6 1 -10 -5 -10 -6 0 -8 -4 -5
-10 3 -5 -1 -10 -10 -10 -9 0 -14 -4 -10 -9 3 -6 -5 -20 -17 -32 -13 -12 -16
-18 -8 -14 19 10 -9 -21 -85 -96 -32 -33 -65 -59 -72 -59 -7 0 -13 -5 -13 -12
0 -6 -3 -9 -6 -5 -4 3 -15 -4 -26 -16 -11 -12 -16 -15 -12 -7 5 11 2 10 -13
-3 -11 -9 -23 -14 -26 -10 -4 3 -7 1 -7 -6 0 -7 -4 -10 -9 -6 -5 3 -16 -1 -24
-9 -8 -8 -17 -13 -20 -10 -3 3 -19 -1 -35 -10 -16 -8 -39 -13 -51 -11 -12 2
-19 0 -16 -5 3 -5 -3 -9 -12 -9 -60 0 -94 -16 -115 -54 -8 -15 -7 -18 3 -12 8
6 10 4 3 -6 -13 -22 -16 -51 -3 -43 8 5 8 1 0 -14 -14 -27 -14 -35 2 -26 9 6
9 5 0 -7 -7 -9 -8 -20 -3 -29 5 -8 6 -19 2 -24 -10 -17 -8 -70 3 -78 6 -5 6
-8 -2 -8 -9 0 -10 -7 -3 -24 5 -15 5 -27 -2 -34 -8 -8 -8 -15 1 -26 9 -11 9
-15 -1 -18 -9 -3 -10 -9 -3 -19 12 -16 13 -39 2 -56 -4 -6 -3 -15 3 -18 8 -5
7 -11 -1 -21 -9 -11 -9 -17 0 -28 9 -11 9 -15 -1 -18 -9 -3 -10 -9 -3 -19 12
-16 13 -39 2 -56 -4 -7 -3 -21 2 -31 6 -11 7 -22 4 -26 -11 -10 -10 -76 1 -76
7 0 8 -3 1 -8 -14 -10 -17 -64 -3 -56 6 4 6 -1 -1 -14 -13 -25 -14 -35 -3 -28
11 6 9 -25 -2 -42 -4 -7 -2 -19 4 -27 9 -11 9 -15 1 -15 -6 0 -11 -4 -11 -9 0
-5 18 -8 40 -7 22 0 40 -3 40 -9 0 -7 3 -7 8 0 4 6 18 10 32 10 l25 0 0 418
c0 353 3 419 15 427 8 5 18 6 22 4 4 -3 8 -1 8 5 0 5 9 8 20 6 11 -2 22 0 25
5 3 5 13 6 22 3 12 -5 14 -3 8 7 -5 8 -4 11 3 6 6 -3 38 7 71 24 33 17 63 30
67 30 3 -1 12 7 20 17 7 10 14 15 14 11 0 -4 12 4 26 17 15 14 31 25 35 25 12
0 69 57 69 69 0 6 8 8 18 4 9 -3 14 -3 10 1 -3 4 1 16 10 25 30 31 48 56 55
75 4 10 12 14 19 10 7 -4 10 -4 6 1 -4 4 1 20 11 34 17 25 26 43 31 66 1 6 7
19 13 30 6 11 12 23 13 28 1 4 3 10 4 15 1 4 2 10 1 15 0 4 3 7 9 7 6 0 9 3 9
8 -4 23 2 62 9 58 4 -3 7 8 6 25 -1 16 1 29 4 29 4 0 9 55 10 121 2 72 0 119
-5 116 -6 -4 -10 0 -10 8 0 8 5 11 11 8 7 -5 7 -2 0 8 -6 8 -11 26 -10 41 1
14 -2 24 -6 22 -7 -4 -9 4 -8 31 0 3 -7 19 -15 35 -9 17 -13 35 -10 40 3 6 2
10 -2 10 -5 0 -14 9 -21 21 -11 17 -11 20 0 14 7 -3 6 -1 -3 7 -9 7 -14 20
-11 28 3 8 1 12 -3 8 -4 -4 -17 9 -28 30 -11 20 -25 40 -31 44 -6 4 -7 8 -2 8
5 0 -1 9 -14 20 -13 11 -20 20 -16 20 4 0 -23 29 -60 65 -37 36 -71 65 -76 65
-5 0 -6 5 -3 10 4 6 3 10 -2 9 -11 -3 -63 23 -63 31 0 3 -16 12 -35 19 -19 7
-35 17 -35 22 0 5 -7 9 -15 9 -15 0 -25 4 -72 28 -13 7 -36 12 -53 12 -16 0
-30 4 -30 8 0 4 -10 8 -22 9 -62 2 -98 8 -98 16 0 5 -7 4 -15 -3 -8 -7 -15 -8
-15 -3 0 5 -9 9 -20 9 -11 0 -20 -3 -20 -6 0 -3 -9 -6 -20 -7 -13 -1 -18 2
-13 10 4 7 1 7 -10 -1 -9 -8 -20 -11 -26 -8 -5 3 -12 0 -14 -6 -4 -10 -6 -9
-6 1 -1 11 -4 11 -16 1 -21 -17 -27 -9 -30 40 -1 22 -5 43 -9 47 -3 3 -6 16
-6 28 0 12 -3 25 -7 29 -6 6 -9 20 -15 64 -1 6 -6 12 -11 12 -5 0 -7 9 -4 21
4 15 2 19 -8 15 -9 -3 -12 0 -8 10 3 9 -4 29 -16 45 -12 16 -19 35 -15 41 4 7
3 8 -4 4 -7 -4 -12 -1 -12 7 0 8 -7 20 -15 27 -8 7 -12 16 -9 21 3 5 -2 9 -10
9 -9 0 -15 3 -15 8 3 20 -2 32 -16 32 -8 0 -15 5 -15 12 0 11 -15 29 -57 70
-12 11 -19 26 -16 32 3 6 3 8 -2 4 -7 -7 -76 38 -83 55 -2 4 -10 7 -18 7 -8 0
-17 7 -20 15 -4 8 -10 12 -15 9 -5 -3 -9 -1 -9 3 0 7 -51 34 -72 37 -4 0 -16
9 -28 18 -13 12 -20 14 -20 5 0 -8 -3 -8 -9 2 -5 7 -14 10 -20 7 -6 -4 -11 -2
-11 4 0 6 -4 8 -10 5 -5 -3 -10 -1 -10 6 0 7 -3 9 -6 6 -4 -3 -16 -2 -27 4
-15 9 -18 8 -11 -3 6 -10 5 -11 -7 -1 -18 15 -409 17 -409 2 0 -5 -5 -9 -11
-9 -5 0 -7 5 -4 10 8 12 5 12 -20 -3z"/>
<path d="M990 2913 c0 -4 -20 -9 -45 -10 -63 -3 -75 -5 -75 -14 0 -4 -9 -6
-19 -4 -11 2 -30 -5 -42 -16 -12 -10 -27 -19 -33 -19 -28 0 -166 -133 -166
-160 0 -5 -4 -10 -9 -10 -8 0 -16 -20 -19 -43 0 -4 -8 -19 -17 -33 -9 -14 -14
-28 -11 -31 3 -3 1 -14 -5 -24 -13 -26 -21 -121 -9 -114 6 3 10 -1 10 -9 0 -9
8 -16 19 -16 11 0 23 -5 26 -10 4 -6 11 -8 16 -4 5 3 6 10 3 16 -4 6 1 8 15 3
17 -5 21 -2 21 13 0 11 4 22 9 24 6 2 12 17 15 33 2 17 5 31 6 33 2 1 3 5 4
10 7 28 31 82 38 82 4 0 8 5 8 11 0 6 19 28 42 48 23 20 50 44 60 54 10 9 18
14 18 11 0 -4 8 0 17 7 14 12 16 12 9 -1 -7 -13 -6 -13 6 0 16 18 30 22 85 25
22 2 46 6 52 9 6 4 11 4 11 1 0 -13 38 32 42 50 5 22 -17 74 -32 76 -20 3 -25
4 -37 12 -7 5 -13 5 -13 0z"/>
<path d="M1151 674 c-1 -8 -21 -10 -62 -8 -47 4 -59 2 -53 -8 6 -10 5 -10 -7
-2 -8 6 -37 11 -66 10 -43 -1 -55 -5 -73 -29 -12 -15 -20 -33 -17 -40 2 -6 0
-22 -4 -35 -6 -14 -5 -21 1 -17 5 3 7 -9 5 -30 -4 -27 -2 -34 7 -29 10 6 10 5
1 -7 -6 -8 -10 -35 -8 -62 2 -29 -1 -44 -7 -41 -6 4 -5 -2 1 -14 14 -26 14
-35 0 -26 -8 4 -8 1 -2 -12 5 -11 8 -41 7 -69 -1 -27 3 -56 9 -63 7 -9 5 -11
-9 -5 -15 5 -17 4 -9 -8 6 -8 10 -38 10 -66 -1 -29 2 -53 7 -53 5 0 6 -5 3
-10 -3 -6 15 -19 40 -30 49 -21 70 -26 46 -11 -8 5 149 9 383 8 219 0 399 -5
402 -9 3 -4 11 -8 17 -8 8 0 7 4 -2 9 -9 6 78 9 221 8 130 -1 240 -5 244 -9 4
-5 12 -8 18 -8 6 0 5 4 -3 9 -8 5 159 9 407 8 336 -1 426 2 446 12 14 8 23 18
20 23 -3 4 -2 8 3 8 10 0 8 536 -2 568 -4 12 -14 22 -21 22 -8 0 -14 4 -14 9
0 5 -26 8 -58 8 -32 0 -63 3 -70 7 -7 4 -12 3 -12 -1 0 -10 -132 -9 -149 1 -6
4 -11 3 -11 -1 0 -11 -131 -9 -148 1 -7 4 -12 3 -12 -1 0 -10 -132 -9 -149 1
-6 4 -11 3 -11 -1 0 -11 -131 -9 -148 1 -7 4 -12 3 -12 -1 0 -10 -132 -9 -149
1 -6 4 -11 3 -11 -1 0 -11 -131 -9 -148 1 -7 4 -12 3 -12 -2 0 -10 -92 -8
-109 2 -6 4 -11 3 -11 -3 0 -6 -20 -7 -50 -4 -38 4 -50 2 -51 -8 0 -8 -4 -5
-9 6 -5 11 -9 15 -9 8 -1 -8 -17 -10 -51 -6 -38 4 -50 2 -51 -8 0 -8 -4 -5 -9
6 -5 11 -9 14 -9 7 -1 -9 -8 -11 -21 -7 -13 4 -20 2 -20 -7 0 -9 -3 -10 -8 -2
-4 7 -23 11 -42 11 -20 -1 -41 2 -47 6 -6 4 -15 2 -19 -4 -5 -8 -3 -9 6 -4 9
5 11 4 6 -4 -6 -9 -11 -9 -21 -1 -8 6 -22 10 -32 8 -10 -1 -24 1 -30 5 -7 5
-13 4 -13 -2 0 -6 -20 -7 -50 -4 -38 4 -50 2 -51 -8 0 -8 -4 -5 -9 6 -5 11 -9
15 -9 8 -1 -8 -17 -10 -51 -6 -38 4 -50 2 -51 -8 0 -8 -4 -5 -9 6 -5 11 -9 15
-9 9z m-23 -149 c17 0 32 3 32 8 0 4 5 5 12 1 14 -9 76 -9 85 -1 3 4 13 2 23
-3 15 -8 17 -30 17 -193 l0 -185 -44 0 c-27 -1 -43 3 -43 11 0 9 -2 9 -8 0 -4
-7 -41 -11 -105 -10 -89 1 -97 2 -91 19 3 11 0 18 -7 18 -10 0 -10 3 -1 12 14
14 16 32 4 24 -11 -6 -9 25 2 42 4 7 3 19 -4 26 -8 11 -8 15 2 18 9 3 10 9 3
19 -9 12 -11 33 -5 49 9 24 8 50 -1 44 -8 -5 -8 -1 0 14 14 27 14 35 -1 26
-10 -6 -10 -4 0 7 15 16 16 33 1 23 -8 -5 -8 -1 0 14 8 14 20 20 41 20 17 -1
33 2 37 6 4 3 9 3 12 -1 3 -5 21 -8 39 -8z m418 5 c13 5 24 6 24 2 0 -8 115
-6 136 2 8 3 11 -1 7 -10 -3 -7 -1 -14 4 -14 5 0 10 -7 10 -15 0 -8 -4 -12 -9
-9 -4 3 -8 0 -8 -5 0 -6 5 -11 11 -11 8 0 7 -6 -2 -17 -12 -15 -12 -16 1 -8
13 8 13 7 1 -8 -9 -12 -10 -17 -2 -17 9 0 9 -5 1 -20 -8 -15 -8 -20 1 -20 8 0
8 -4 -1 -15 -8 -9 -8 -15 -2 -15 7 0 8 -10 2 -30 -5 -16 -5 -30 -1 -30 9 0 8
-31 -3 -48 -4 -6 -3 -12 2 -12 5 0 9 -7 9 -15 0 -8 -4 -12 -8 -9 -4 2 -7 -5
-6 -16 1 -11 5 -20 10 -20 4 0 6 -4 3 -8 -3 -5 -35 -9 -71 -10 -49 -1 -64 2
-58 11 5 9 4 9 -8 0 -8 -6 -43 -11 -81 -11 -56 1 -67 4 -71 19 -3 11 0 19 6
19 9 0 9 2 1 8 -13 8 -13 111 0 131 6 9 5 12 -1 8 -6 -4 -10 6 -11 23 0 17 5
30 11 30 8 0 8 3 2 8 -16 11 -18 44 -3 53 8 6 9 9 2 9 -7 0 -15 7 -18 16 -3 9
-2 12 4 9 7 -4 9 3 6 20 -5 25 -3 26 35 22 24 -2 39 0 40 7 0 7 2 7 5 -1 4 -8
13 -9 30 -3z m464 -4 c14 0 34 3 43 7 9 3 19 2 22 -3 3 -5 15 -6 28 -1 15 6
26 4 35 -8 8 -9 10 -10 6 -2 -5 9 -3 12 5 7 6 -4 8 -12 4 -18 -3 -7 -6 -89 -6
-183 l0 -172 -39 -1 c-24 -1 -38 3 -38 11 0 9 -2 9 -8 0 -5 -7 -41 -11 -105
-11 -91 1 -98 2 -94 19 3 11 0 19 -6 19 -8 0 -8 3 0 11 6 6 8 23 3 45 -4 18
-4 32 0 29 4 -2 7 9 6 25 -1 17 -4 30 -8 30 -4 0 -3 12 3 27 7 20 7 29 -1 31
-8 3 -8 8 1 18 6 8 8 14 3 14 -8 0 -9 22 -5 98 1 9 15 12 51 9 28 -2 50 1 50
6 0 4 5 5 12 1 7 -4 24 -8 38 -8z m416 4 c13 5 24 6 24 2 0 -4 18 -7 40 -7 22
0 40 4 40 9 0 5 6 3 13 -3 8 -6 16 -9 18 -6 3 2 6 -7 7 -21 1 -18 -2 -23 -11
-18 -9 6 -9 4 1 -8 14 -17 13 -39 -3 -50 -6 -5 -6 -8 2 -8 6 0 11 -13 11 -30
-1 -18 -5 -27 -12 -23 -6 4 -5 0 2 -9 14 -17 13 -39 -3 -50 -6 -5 -6 -8 2 -8
6 0 11 -13 11 -30 -1 -18 -5 -27 -12 -23 -7 4 -6 1 1 -8 6 -8 10 -24 9 -34 -2
-11 0 -27 5 -36 7 -14 -9 -16 -142 -16 -123 -1 -149 2 -145 13 3 7 2 16 -3 18
-9 6 -8 37 3 54 4 7 2 12 -5 12 -8 0 -7 5 2 17 12 14 12 15 1 9 -11 -7 -12 -4
-3 13 8 14 8 21 1 21 -8 0 -8 6 0 20 6 11 7 20 2 20 -10 0 -9 30 2 48 4 7 2
12 -5 12 -8 0 -7 5 2 17 12 14 12 15 1 9 -11 -7 -12 -4 -3 13 9 16 9 21 0 21
-8 0 -8 4 1 15 8 10 9 15 2 15 -6 0 -9 7 -6 15 4 10 18 14 45 12 21 -2 44 0
51 4 7 5 17 4 22 -1 5 -5 18 -5 32 0z m382 -5 c17 0 32 3 32 8 0 4 5 5 12 1
17 -11 78 -10 78 1 0 5 5 4 11 -2 6 -6 18 -9 25 -6 31 12 52 -40 30 -75 -4 -7
-3 -19 4 -26 8 -11 8 -15 -2 -18 -9 -3 -10 -9 -3 -19 12 -16 13 -39 2 -56 -4
-6 -3 -15 3 -18 8 -5 7 -11 -1 -21 -9 -11 -9 -17 0 -28 9 -11 9 -15 0 -18 -8
-3 -9 -9 -4 -18 12 -20 14 -50 3 -56 -4 -3 -6 -9 -4 -13 3 -4 -9 -8 -26 -9
-17 -2 -35 3 -40 10 -5 9 -8 9 -8 1 0 -7 -20 -12 -55 -12 -35 0 -55 5 -55 12
0 9 -2 9 -8 0 -9 -15 -89 -14 -95 1 -2 6 -3 89 -3 185 l1 174 24 4 c14 2 27 6
30 8 2 3 7 2 10 -2 3 -5 21 -8 39 -8z"/>
</g>
</svg>
