<?xml version="1.0" standalone="no"?>
<!DOCTYPE svg PUBLIC "-//W3C//DTD SVG 20010904//EN"
 "http://www.w3.org/TR/2001/REC-SVG-20010904/DTD/svg10.dtd">
<svg version="1.0" xmlns="http://www.w3.org/2000/svg"
 width="361.000000pt" height="400.000000pt" viewBox="0 0 361.000000 400.000000"
 preserveAspectRatio="xMidYMid meet">

<g transform="translate(0.000000,400.000000) scale(0.100000,-0.100000)"
fill="#000000" stroke="none">
<path d="M1543 3976 c-128 -41 -270 -132 -361 -230 -112 -121 -204 -313 -219
-457 l-6 -57 -131 1 c-203 3 -315 -31 -481 -143 -119 -81 -212 -194 -276 -336
-41 -91 -61 -179 -66 -300 -4 -84 -1 -116 21 -201 45 -177 102 -279 228 -399
103 -100 203 -158 332 -194 38 -11 73 -25 78 -32 4 -7 8 -199 8 -426 l0 -413
63 3 62 3 3 462 c3 531 10 492 -95 513 -278 57 -458 216 -542 479 -46 141 -20
368 57 508 54 99 178 219 272 266 125 61 212 80 343 73 62 -3 134 -8 160 -12
55 -7 87 12 87 52 0 45 22 169 42 239 63 217 237 397 457 472 68 23 91 26 221
26 130 0 153 -3 221 -26 220 -75 394 -255 457 -472 20 -70 42 -194 42 -239 0
-40 32 -59 87 -52 26 4 98 9 160 12 131 7 218 -12 343 -73 94 -47 218 -167
272 -266 77 -140 103 -367 57 -508 -83 -260 -261 -420 -528 -474 -121 -25
-112 19 -109 -519 l3 -461 63 -3 62 -3 0 413 c0 227 4 419 8 426 5 7 40 21 78
32 129 36 229 94 332 194 125 119 183 221 227 394 41 162 31 300 -34 472 -59
154 -196 318 -339 403 -144 85 -249 113 -428 110 l-131 -1 -6 57 c-15 144
-107 336 -219 457 -93 100 -234 190 -366 230 -70 22 -95 24 -257 23 -158 -1
-189 -3 -252 -23z"/>
<path d="M714 2900 c-108 -16 -237 -103 -300 -203 -53 -83 -93 -222 -74 -258
17 -31 48 -42 80 -29 29 12 36 24 65 119 22 72 64 131 122 174 52 38 127 67
173 67 65 0 100 38 86 93 -10 42 -50 52 -152 37z"/>
<path d="M713 660 c-38 -15 -44 -70 -41 -344 3 -233 5 -256 22 -275 l19 -21
1092 0 c1045 0 1093 1 1108 18 15 16 17 52 17 301 l0 282 -25 24 -24 25 -1073
-1 c-597 0 -1083 -4 -1095 -9z m382 -320 l0 -185 -145 0 -145 0 -3 175 c-1 96
0 180 3 187 3 11 37 13 147 11 l143 -3 0 -185z m423 -3 l2 -188 -142 3 -143 3
-3 175 c-1 96 0 180 3 187 3 11 36 13 142 11 l138 -3 3 -188z m427 3 l0 -185
-142 -3 -143 -3 0 191 0 191 143 -3 142 -3 0 -185z m420 0 l0 -185 -142 -3
-143 -3 0 184 c0 101 3 187 7 191 4 3 68 5 142 4 l136 -3 0 -185z m430 0 l0
-185 -145 0 -145 0 -3 175 c-1 96 0 180 3 187 3 11 37 13 147 11 l143 -3 0
-185z"/>
</g>
</svg>
