<?xml version="1.0" standalone="no"?>
<!DOCTYPE svg PUBLIC "-//W3C//DTD SVG 20010904//EN"
 "http://www.w3.org/TR/2001/REC-SVG-20010904/DTD/svg10.dtd">
<svg version="1.0" xmlns="http://www.w3.org/2000/svg"
 width="128.000000pt" height="128.000000pt" viewBox="0 0 128.000000 128.000000"
 preserveAspectRatio="xMidYMid meet">
<metadata>
Created by potrace 1.16, written by Peter Selinger 2001-2019
</metadata>
<g transform="translate(0.000000,128.000000) scale(0.100000,-0.100000)"
fill="#000000" stroke="none">
<path d="M78 1079 c-24 -13 -23 -46 1 -59 13 -6 207 -10 561 -10 354 0 548 4
561 10 10 6 19 19 19 30 0 11 -9 24 -19 30 -27 14 -1099 13 -1123 -1z"/>
<path d="M78 669 c-24 -13 -23 -46 1 -59 27 -14 1095 -14 1122 0 10 6 19 19
19 30 0 11 -9 24 -19 30 -27 14 -1099 13 -1123 -1z"/>
<path d="M78 259 c-24 -13 -23 -46 1 -59 27 -14 1095 -14 1122 0 10 6 19 19
19 30 0 11 -9 24 -19 30 -27 14 -1099 13 -1123 -1z"/>
</g>
</svg>
